<svg version="1.1" viewBox="0.0 0.0 37.79527559055118 37.79527559055118" fill="none" stroke="none" stroke-linecap="square" stroke-miterlimit="10" xmlns:xlink="http://www.w3.org/1999/xlink" xmlns="http://www.w3.org/2000/svg"><clipPath id="p.0"><path d="m0 0l37.795277 0l0 37.795277l-37.795277 0l0 -37.795277z" clip-rule="nonzero"/></clipPath><g clip-path="url(#p.0)"><path fill="#000000" fill-opacity="0.0" d="m0 0l37.795277 0l0 37.795277l-37.795277 0z" fill-rule="evenodd"/><path fill="#cc0000" d="m28.511454 0.5581312c0.48002052 0 1.8338089 0.747 1.9499435 1.0842284c0.16479874 0.45388567 0.06636238 0.6146575 -1.3548965 1.9910196c-0.80851173 0.7803309 -1.3703785 1.1450078 -1.9167614 1.1450078c-0.33402252 0 -0.6636219 -0.13724422 -1.0396748 -0.39800787c-0.6945896 -0.4832952 -0.6779995 -1.0401142 0.048666 -1.9184763c0.64481926 -0.80483854 1.9997158 -1.9037716 2.3127232 -1.9037716zm-19.40652 0.08920866c0.6016846 0 1.1480665 0.43525988 2.028472 1.4047914c1.1071424 1.2008858 1.2221699 1.5224292 0.7930279 2.0351338c-0.13272381 0.16077185 -0.61163807 0.42447662 -1.0573711 0.585248l-0.7930279 0.2931142l-1.4201517 -1.332248c-1.5694656 -1.494 -1.7353716 -1.9478858 -0.85939026 -2.4890196c0.5242615 -0.32350397 0.92796516 -0.4970197 1.3084412 -0.4970197zm9.740866 4.3555393c1.0053883 0 2.2419357 0.39800787 4.3467255 1.3538151c1.3880749 0.6293621 1.8338089 0.9224763 1.9333515 1.2881341c0.28093338 0.9959998 -1.8006287 3.4114957 -3.5846653 4.1584954c-0.9091625 0.3803625 -1.0573711 0.6009331 -0.6614094 0.9665909c0.380476 0.3362484 0.016590118 1.1273623 -0.69348526 1.5077248c-0.429142 0.23429489 -0.8638153 0.35193253 -1.2951698 0.35193253c-0.43135452 0 -0.8604965 -0.117637634 -1.2818966 -0.35193253c-0.84280014 -0.45388603 -1.0075989 -0.80483913 -0.7266655 -1.4783154c0.19798088 -0.48329544 0.16479874 -0.52740955 -0.9423437 -1.142067c-1.3869696 -0.76170444 -2.3127222 -1.5812483 -2.906664 -2.5919523c-0.66141033 -1.1126575 -0.57845783 -1.6547718 0.3461895 -2.1664963c1.02419 -0.57152367 3.4530458 -1.5087047 4.6420355 -1.8008385c0.26544952 -0.062740326 0.5353222 -0.095090866 0.8239975 -0.095090866zm9.112637 4.5927753c0.20682907 0 0.43688583 0.06470108 0.70233345 0.1872406c0.7100754 0.32252312 2.3956757 1.9910192 3.320322 3.294839c0.99100876 1.3900862 0.8096199 2.1223812 -0.5286846 2.1223812c-0.9246464 0 -2.0317898 0.42447662 -2.3127232 0.87836266c-0.429142 0.71759033 -0.26434326 1.567524 0.39706802 2.1380672c0.7266655 0.61465645 0.82510185 1.4351807 0.214571 1.727314c-0.24001122 0.1146965 -0.54195786 0.16861534 -0.8815117 0.16861534c-0.8781929 0 -2.0052452 -0.36075592 -2.9343166 -0.9734535c-0.72777176 -0.4979992 -1.5694656 -1.9469051 -1.5694656 -2.7086105c0 -0.6587715 0.5607605 -1.2302952 1.2055798 -1.2302952l0.56186676 0l0 -1.6979055c0 -1.4498854 0.06525612 -1.8449526 0.54527664 -2.7233143c0.429142 -0.82248497 0.7930279 -1.1832409 1.2796841 -1.1832409zm-18.311544 -0.016665459c0.5187321 0 0.9865856 0.44212246 1.469923 1.3606777c0.4623232 0.8783617 0.54527664 1.3028383 0.54527664 2.6497917l0.016590118 1.5812473l0.61163807 0.058818817c0.39596176 0.044114113 0.71007633 0.21959114 0.90805626 0.52740955c0.24775219 0.40977192 0.24775219 0.585248 -0.06636143 1.49302c-0.42914295 1.1861801 -1.4201517 2.1380672 -2.7584562 2.5772476c-0.5696087 0.196064 -1.0518408 0.29507446 -1.4666042 0.29507446c-0.39153767 0 -0.72224236 -0.088228226 -1.0109181 -0.26566505c-0.62822866 -0.39506721 -0.5784569 -0.6587715 0.26434278 -1.5518379c0.39596176 -0.42447662 0.72666645 -0.9665909 0.72666645 -1.2008858c0 -1.142067 -1.0739617 -1.9037724 -2.676609 -1.9037724c-0.69348526 0 -0.89146566 -0.08724785 -1.0739617 -0.43918037c-0.18138981 -0.3656578 -0.1316185 -0.58524895 0.31411457 -1.2587252c0.6768942 -1.010704 2.7263808 -3.1772003 3.4862275 -3.6752005c0.24996471 -0.16469288 0.48444462 -0.24802017 0.7100754 -0.24802017zm-9.647958 -9.576696l0 1.4930197c0 1.0077637 0.03096903 1.3253859 0.17032966 1.3253859c0.038711295 0 0.08627087 -0.024508 0.14378479 -0.06568122c0.12719423 -0.09607077 0.32185668 -0.14018512 0.5651848 -0.14018512c1.2465034 0 3.7749035 1.1528504 5.101042 2.4390235c0.57845736 0.5558386 1.0407805 1.1714764 1.0407805 1.3763623c0 0.19018126 -0.59504795 0.8489528 -1.3548951 1.4930196c-2.1634078 1.800839 -3.9972167 4.348677 -4.5093117 6.267154c-0.16811758 0.5960312 -0.40812755 0.9077711 -0.6990152 0.9077711c-0.051983714 0 -0.10507348 -0.009802818 -0.16037533 -0.029409409c-0.0055301785 -0.0019607544 -0.012166411 -0.003921509 -0.01769659 -0.003921509c-0.23226771 0 -0.2798273 1.7577047 -0.2798273 11.380477c0 7.5278397 0.081846714 11.348125 0.21125302 11.348125c0.0011060387 0 0.0022120774 0 0.003318116 -9.803772E-4c0.116133854 -0.05783844 0.19908662 -0.20488739 0.19908662 -0.306839c0 -0.10293198 0.42914227 -0.6009331 0.94123733 -1.0989342c1.2055801 -1.1273613 1.9654273 -2.590969 2.1147423 -4.0408554c0.049771786 -0.629364 0.18139005 -1.2734299 0.28093338 -1.448906c0.09843731 -0.1617527 0.66030407 -0.44016266 1.238761 -0.61563873c0.67689466 -0.19018173 1.3880763 -0.5999527 1.9322462 -1.0685425c0.9423437 -0.8342476 1.5196943 -1.9037724 1.0739617 -2.0204296c-2.5770655 -0.64406776 -4.2117877 -1.9037724 -4.790245 -3.6604958c-0.31411433 -0.9665909 -0.33070493 -1.1567726 -0.06636214 -1.5665436c0.2101469 -0.32840538 0.46674752 -0.4930992 0.812937 -0.4930992c0.3329172 0 0.7498927 0.15390968 1.2852149 0.4636898c1.1547022 0.64406776 2.2353 0.9283581 3.561438 0.9283581c0.2101469 0 0.42693043 -0.0068626404 0.6514559 -0.020586014c2.4443407 -0.1617527 4.525902 -1.5234108 5.3023396 -3.4556103c0.21457195 -0.54211426 0.47891426 -1.0979538 0.59504795 -1.2155914c0.12166405 -0.14704704 0.32296276 -0.21861076 0.5762453 -0.21861076c0.3251753 0 0.7366209 0.119600296 1.1746111 0.35095406c0.59394264 0.32448387 1.1359005 0.48623657 1.692236 0.48623657c0.49550438 0 1.0009632 -0.12842178 1.5617237 -0.38428497c0.56186676 -0.24899864 1.1735058 -0.46858978 1.3548946 -0.46858978c0.46232414 0 0.8759823 0.4979992 1.3217144 1.5518379c0.24775314 0.5862293 0.77643776 1.2744102 1.4533329 1.8596573c1.1956253 1.059721 2.4045238 1.5077248 4.150955 1.5077248c0.25660133 0 0.5242615 -0.009801865 0.80519485 -0.028429031c1.4201508 -0.088228226 2.0151997 -0.2931137 3.6344376 -1.1861801c0.25881195 -0.13920593 0.43024826 -0.20586586 0.6094246 -0.20586586c0.13936234 0 0.28425217 0.041172028 0.4811287 0.117637634c0.44573212 0.1911602 0.52757645 0.33722687 0.52757645 0.9959984c0 1.0401154 -0.77643585 2.4743156 -1.7508545 3.236021c-0.82621 0.64406586 -2.3459034 1.3028374 -3.0062084 1.3028374c-0.49550438 0 -0.49550438 0.20488739 0 1.0548191c0.54527664 0.95090675 1.3714867 1.5812492 2.725275 2.1076775c0.64482117 0.24900055 1.2398682 0.57152367 1.3383026 0.7028866c0.099544525 0.14704704 0.23116302 0.80581856 0.2975273 1.4792938c0.16479874 1.5077248 0.9412346 2.9870224 2.1811028 4.143791c0.4955063 0.45388794 0.90805435 0.8930664 0.90805435 0.9656105c0 0.073524475 0.08295441 0.19116211 0.19798279 0.24900055c0.0011062622 9.803772E-4 0.0033187866 9.803772E-4 0.004425049 9.803772E-4c0.1459961 0 0.21014404 -3.8202858 0.21014404 -11.348125c0 -10.343304 -0.014377594 -11.357929 -0.3174324 -11.357929c-0.018802643 0 -0.039813995 0.003921509 -0.061935425 0.0107831955c-0.050880432 0.013724327 -0.09843826 0.021567345 -0.14378738 0.021567345c-0.33181 0 -0.5696068 -0.39310646 -0.9467659 -1.4861574c-0.6437149 -1.9037724 -2.1634064 -3.9389057 -4.2449684 -5.6662207c-0.71118164 -0.5999532 -1.3051243 -1.2597051 -1.3051243 -1.4498858c0 -1.1126575 2.4111614 -2.9429057 4.773653 -3.6163821c0.7156067 -0.20488572 1.1170998 -0.29605508 1.3969269 -0.29605508c0.17917633 0 0.30747604 0.03725195 0.43688202 0.10587406c0.103969574 0.05783844 0.18139267 0.09607077 0.24001312 0.09607077c0.16369247 0 0.17253876 -0.30389762 0.17253876 -1.3410708l0 -1.4636103z" fill-rule="evenodd"/><path stroke="#990000" stroke-width="1.0" stroke-linejoin="round" stroke-linecap="butt" d="m28.511454 0.5581312c0.48002052 0 1.8338089 0.747 1.9499435 1.0842284c0.16479874 0.45388567 0.06636238 0.6146575 -1.3548965 1.9910196c-0.80851173 0.7803309 -1.3703785 1.1450078 -1.9167614 1.1450078c-0.33402252 0 -0.6636219 -0.13724422 -1.0396748 -0.39800787c-0.6945896 -0.4832952 -0.6779995 -1.0401142 0.048666 -1.9184763c0.64481926 -0.80483854 1.9997158 -1.9037716 2.3127232 -1.9037716zm-19.40652 0.08920866c0.6016846 0 1.1480665 0.43525988 2.028472 1.4047914c1.1071424 1.2008858 1.2221699 1.5224292 0.7930279 2.0351338c-0.13272381 0.16077185 -0.61163807 0.42447662 -1.0573711 0.585248l-0.7930279 0.2931142l-1.4201517 -1.332248c-1.5694656 -1.494 -1.7353716 -1.9478858 -0.85939026 -2.4890196c0.5242615 -0.32350397 0.92796516 -0.4970197 1.3084412 -0.4970197zm9.740866 4.3555393c1.0053883 0 2.2419357 0.39800787 4.3467255 1.3538151c1.3880749 0.6293621 1.8338089 0.9224763 1.9333515 1.2881341c0.28093338 0.9959998 -1.8006287 3.4114957 -3.5846653 4.1584954c-0.9091625 0.3803625 -1.0573711 0.6009331 -0.6614094 0.9665909c0.380476 0.3362484 0.016590118 1.1273623 -0.69348526 1.5077248c-0.429142 0.23429489 -0.8638153 0.35193253 -1.2951698 0.35193253c-0.43135452 0 -0.8604965 -0.117637634 -1.2818966 -0.35193253c-0.84280014 -0.45388603 -1.0075989 -0.80483913 -0.7266655 -1.4783154c0.19798088 -0.48329544 0.16479874 -0.52740955 -0.9423437 -1.142067c-1.3869696 -0.76170444 -2.3127222 -1.5812483 -2.906664 -2.5919523c-0.66141033 -1.1126575 -0.57845783 -1.6547718 0.3461895 -2.1664963c1.02419 -0.57152367 3.4530458 -1.5087047 4.6420355 -1.8008385c0.26544952 -0.062740326 0.5353222 -0.095090866 0.8239975 -0.095090866zm9.112637 4.5927753c0.20682907 0 0.43688583 0.06470108 0.70233345 0.1872406c0.7100754 0.32252312 2.3956757 1.9910192 3.320322 3.294839c0.99100876 1.3900862 0.8096199 2.1223812 -0.5286846 2.1223812c-0.9246464 0 -2.0317898 0.42447662 -2.3127232 0.87836266c-0.429142 0.71759033 -0.26434326 1.567524 0.39706802 2.1380672c0.7266655 0.61465645 0.82510185 1.4351807 0.214571 1.727314c-0.24001122 0.1146965 -0.54195786 0.16861534 -0.8815117 0.16861534c-0.8781929 0 -2.0052452 -0.36075592 -2.9343166 -0.9734535c-0.72777176 -0.4979992 -1.5694656 -1.9469051 -1.5694656 -2.7086105c0 -0.6587715 0.5607605 -1.2302952 1.2055798 -1.2302952l0.56186676 0l0 -1.6979055c0 -1.4498854 0.06525612 -1.8449526 0.54527664 -2.7233143c0.429142 -0.82248497 0.7930279 -1.1832409 1.2796841 -1.1832409zm-18.311544 -0.016665459c0.5187321 0 0.9865856 0.44212246 1.469923 1.3606777c0.4623232 0.8783617 0.54527664 1.3028383 0.54527664 2.6497917l0.016590118 1.5812473l0.61163807 0.058818817c0.39596176 0.044114113 0.71007633 0.21959114 0.90805626 0.52740955c0.24775219 0.40977192 0.24775219 0.585248 -0.06636143 1.49302c-0.42914295 1.1861801 -1.4201517 2.1380672 -2.7584562 2.5772476c-0.5696087 0.196064 -1.0518408 0.29507446 -1.4666042 0.29507446c-0.39153767 0 -0.72224236 -0.088228226 -1.0109181 -0.26566505c-0.62822866 -0.39506721 -0.5784569 -0.6587715 0.26434278 -1.5518379c0.39596176 -0.42447662 0.72666645 -0.9665909 0.72666645 -1.2008858c0 -1.142067 -1.0739617 -1.9037724 -2.676609 -1.9037724c-0.69348526 0 -0.89146566 -0.08724785 -1.0739617 -0.43918037c-0.18138981 -0.3656578 -0.1316185 -0.58524895 0.31411457 -1.2587252c0.6768942 -1.010704 2.7263808 -3.1772003 3.4862275 -3.6752005c0.24996471 -0.16469288 0.48444462 -0.24802017 0.7100754 -0.24802017zm-9.647958 -9.576696l0 1.4930197c0 1.0077637 0.03096903 1.3253859 0.17032966 1.3253859c0.038711295 0 0.08627087 -0.024508 0.14378479 -0.06568122c0.12719423 -0.09607077 0.32185668 -0.14018512 0.5651848 -0.14018512c1.2465034 0 3.7749035 1.1528504 5.101042 2.4390235c0.57845736 0.5558386 1.0407805 1.1714764 1.0407805 1.3763623c0 0.19018126 -0.59504795 0.8489528 -1.3548951 1.4930196c-2.1634078 1.800839 -3.9972167 4.348677 -4.5093117 6.267154c-0.16811758 0.5960312 -0.40812755 0.9077711 -0.6990152 0.9077711c-0.051983714 0 -0.10507348 -0.009802818 -0.16037533 -0.029409409c-0.0055301785 -0.0019607544 -0.012166411 -0.003921509 -0.01769659 -0.003921509c-0.23226771 0 -0.2798273 1.7577047 -0.2798273 11.380477c0 7.5278397 0.081846714 11.348125 0.21125302 11.348125c0.0011060387 0 0.0022120774 0 0.003318116 -9.803772E-4c0.116133854 -0.05783844 0.19908662 -0.20488739 0.19908662 -0.306839c0 -0.10293198 0.42914227 -0.6009331 0.94123733 -1.0989342c1.2055801 -1.1273613 1.9654273 -2.590969 2.1147423 -4.0408554c0.049771786 -0.629364 0.18139005 -1.2734299 0.28093338 -1.448906c0.09843731 -0.1617527 0.66030407 -0.44016266 1.238761 -0.61563873c0.67689466 -0.19018173 1.3880763 -0.5999527 1.9322462 -1.0685425c0.9423437 -0.8342476 1.5196943 -1.9037724 1.0739617 -2.0204296c-2.5770655 -0.64406776 -4.2117877 -1.9037724 -4.790245 -3.6604958c-0.31411433 -0.9665909 -0.33070493 -1.1567726 -0.06636214 -1.5665436c0.2101469 -0.32840538 0.46674752 -0.4930992 0.812937 -0.4930992c0.3329172 0 0.7498927 0.15390968 1.2852149 0.4636898c1.1547022 0.64406776 2.2353 0.9283581 3.561438 0.9283581c0.2101469 0 0.42693043 -0.0068626404 0.6514559 -0.020586014c2.4443407 -0.1617527 4.525902 -1.5234108 5.3023396 -3.4556103c0.21457195 -0.54211426 0.47891426 -1.0979538 0.59504795 -1.2155914c0.12166405 -0.14704704 0.32296276 -0.21861076 0.5762453 -0.21861076c0.3251753 0 0.7366209 0.119600296 1.1746111 0.35095406c0.59394264 0.32448387 1.1359005 0.48623657 1.692236 0.48623657c0.49550438 0 1.0009632 -0.12842178 1.5617237 -0.38428497c0.56186676 -0.24899864 1.1735058 -0.46858978 1.3548946 -0.46858978c0.46232414 0 0.8759823 0.4979992 1.3217144 1.5518379c0.24775314 0.5862293 0.77643776 1.2744102 1.4533329 1.8596573c1.1956253 1.059721 2.4045238 1.5077248 4.150955 1.5077248c0.25660133 0 0.5242615 -0.009801865 0.80519485 -0.028429031c1.4201508 -0.088228226 2.0151997 -0.2931137 3.6344376 -1.1861801c0.25881195 -0.13920593 0.43024826 -0.20586586 0.6094246 -0.20586586c0.13936234 0 0.28425217 0.041172028 0.4811287 0.117637634c0.44573212 0.1911602 0.52757645 0.33722687 0.52757645 0.9959984c0 1.0401154 -0.77643585 2.4743156 -1.7508545 3.236021c-0.82621 0.64406586 -2.3459034 1.3028374 -3.0062084 1.3028374c-0.49550438 0 -0.49550438 0.20488739 0 1.0548191c0.54527664 0.95090675 1.3714867 1.5812492 2.725275 2.1076775c0.64482117 0.24900055 1.2398682 0.57152367 1.3383026 0.7028866c0.099544525 0.14704704 0.23116302 0.80581856 0.2975273 1.4792938c0.16479874 1.5077248 0.9412346 2.9870224 2.1811028 4.143791c0.4955063 0.45388794 0.90805435 0.8930664 0.90805435 0.9656105c0 0.073524475 0.08295441 0.19116211 0.19798279 0.24900055c0.0011062622 9.803772E-4 0.0033187866 9.803772E-4 0.004425049 9.803772E-4c0.1459961 0 0.21014404 -3.8202858 0.21014404 -11.348125c0 -10.343304 -0.014377594 -11.357929 -0.3174324 -11.357929c-0.018802643 0 -0.039813995 0.003921509 -0.061935425 0.0107831955c-0.050880432 0.013724327 -0.09843826 0.021567345 -0.14378738 0.021567345c-0.33181 0 -0.5696068 -0.39310646 -0.9467659 -1.4861574c-0.6437149 -1.9037724 -2.1634064 -3.9389057 -4.2449684 -5.6662207c-0.71118164 -0.5999532 -1.3051243 -1.2597051 -1.3051243 -1.4498858c0 -1.1126575 2.4111614 -2.9429057 4.773653 -3.6163821c0.7156067 -0.20488572 1.1170998 -0.29605508 1.3969269 -0.29605508c0.17917633 0 0.30747604 0.03725195 0.43688202 0.10587406c0.103969574 0.05783844 0.18139267 0.09607077 0.24001312 0.09607077c0.16369247 0 0.17253876 -0.30389762 0.17253876 -1.3410708l0 -1.4636103z" fill-rule="evenodd"/></g></svg>