<svg version="1.1" viewBox="0.0 0.0 377.9527559055118 120.94488188976378" fill="none" stroke="none" stroke-linecap="square" stroke-miterlimit="10" xmlns:xlink="http://www.w3.org/1999/xlink" xmlns="http://www.w3.org/2000/svg"><clipPath id="p.0"><path d="m0 0l377.95276 0l0 120.944885l-377.95276 0l0 -120.944885z" clip-rule="nonzero"/></clipPath><g clip-path="url(#p.0)"><path fill="#000000" fill-opacity="0.0" d="m0 0l377.95276 0l0 120.944885l-377.95276 0z" fill-rule="evenodd"/><path fill="#000000" d="m158.90324 7.358181c0.3534851 0 2.9549103 2.1742172 5.9098206 4.904907c0.9611511 0.908905 2.4756775 2.300086 3.3851776 3.1347942l1.6164703 1.490551l2.3247375 -3.1851416c1.2629852 -1.71844 2.5259705 -3.1599684 2.8039856 -3.1599684c0.0026397705 0 0.0066223145 0 0.009262085 0c0.29125977 0 1.314621 1.1023445 2.2638397 2.4272795c3.082016 4.246415 6.5174866 9.100974 10.154205 14.307967c2.1724854 3.084446 4.117279 5.612421 11.140488 14.43516c3.4354706 4.298088 7.8559265 9.202995 13.614822 15.067154c5.8105316 5.9158325 15.257767 14.738571 17.455414 16.30597c0.83406067 0.60681915 1.5410004 1.2891617 1.5410004 1.4918747c0 0.26498413 -0.23034668 0.3921814 -0.5507355 0.3921814c-0.35083008 0 -0.80888367 -0.15236664 -1.19281 -0.44252777c-0.3534851 -0.25306702 -0.85787964 -0.48095703 -1.1610565 -0.48095703c-0.4805603 0 -12.504089 -5.9913483 -17.455414 -8.695541c-9.1440735 -4.980427 -23.542633 -14.587528 -32.6364 -21.767345c-0.08074951 -0.05962372 -0.1469574 -0.092746735 -0.19726562 -0.092746735c-0.18269348 0 -0.16944885 0.4557762 -0.030441284 1.7873383c0.5308838 4.928753 2.0970306 11.072475 3.5625763 13.903862c0.2263794 0.4292755 0.40377808 0.9605751 0.40377808 1.1884651c0 0.2557106 -0.20652771 0.37760544 -0.5348511 0.37760544c-0.51763916 0 -1.3397675 -0.30208588 -2.1433716 -0.85855865c-7.3502045 -5.030773 -10.988235 -7.7866364 -13.767075 -10.415306l-1.4642029 -1.3898582l-1.3649292 1.6680908c-0.7824249 0.93540573 -2.2479553 2.67902 -3.2832336 3.9178314c-1.0604401 1.2136421 -2.4756622 2.9082336 -3.1826172 3.7667885c-0.6818085 0.85988235 -1.9712677 2.3517609 -2.8291473 3.3375092c-3.763794 4.2477417 -5.2293396 5.991356 -7.249588 8.594849c-1.1875305 1.5170517 -2.3498993 2.7810364 -2.6027527 2.7810364c-0.30317688 0 -0.40379333 -0.5047989 -0.40379333 -1.8204575c0 -0.9857483 -0.22770691 -3.436882 -0.4540863 -5.434883c-0.65797424 -5.2069893 -1.1372223 -10.6935425 -1.1372223 -12.86776c0 -1.9503021 -0.039718628 -2.8260841 -0.45806885 -2.8260841c-0.33096313 0 -0.8962555 0.54454803 -1.8653412 1.5369225c-3.1071625 3.1347961 -8.867386 8.468983 -12.200928 11.300365c-1.1120605 0.93540573 -2.2744293 1.9715004 -2.6027527 2.2749138c-0.3574524 0.35905457 -0.7691803 0.54454803 -1.0683746 0.54454803c-0.24889374 0 -0.42099762 -0.12851715 -0.42099762 -0.3921814c0 -0.40410614 1.5410004 -5.208317 2.0202484 -6.3199387c0.022506714 -0.04504776 0.0132369995 -0.06624603 -0.0238266 -0.06624603c-0.21446991 0 -1.383461 0.7326889 -2.8304672 1.8350334c-6.6432495 4.9300804 -17.30317 11.907185 -23.16401 15.144001c-0.7824173 0.42928314 -2.2479553 1.2374878 -3.2329254 1.7687912c-0.9849701 0.5564728 -3.38517 1.8204575 -5.35511 2.8565521c-1.9712677 1.0109253 -4.5727005 2.5028076 -5.7853775 3.3123398c-1.212677 0.8082123 -2.39888 1.4653778 -2.626587 1.4653778c-0.8591995 0 -0.17739868 -1.136795 1.3384476 -2.1993942c2.3498917 -1.7184372 5.8105316 -4.6001663 7.9062347 -6.6485214c6.9477463 -6.698868 19.72853 -20.577553 25.108795 -27.175728c1.9964218 -2.4524536 7.9830246 -10.28944 8.917686 -11.679295c0.30316925 -0.4557762 0.9849701 -1.4415283 1.5410004 -2.225891c5.0016327 -7.077799 13.13559 -20.021082 13.690292 -21.766022c0.12445068 -0.39350605 0.27537537 -0.60549545 0.5308838 -0.60549545c0.36802673 0 0.95318604 0.43590355 1.9950867 1.3898563c0.88435364 0.78303623 2.6782227 2.3252602 3.991516 3.4382048l2.4001923 1.9966755l1.2378387 -1.6177444c0.6566467 -0.88505554 2.045395 -2.5279741 3.0568542 -3.6409197c0.9849701 -1.11162 2.551117 -3.0076008 3.4341583 -4.196067c0.88435364 -1.1884661 1.7435455 -2.1742172 1.9209442 -2.1742172zm11.4900055 -6.901583c-3.833969 0 -8.25708 0.0079496205 -12.930389 0.025173753l-25.537735 0.07552126l-1.5661469 3.008926c-0.88435364 1.6429188 -2.1221924 3.9946773 -2.753685 5.206992c-0.6314926 1.2136402 -1.2378311 2.3014116 -1.3132935 2.3769321c-0.10193634 0.10069561 -0.35347748 0.50612545 -0.5560303 0.96057796c-0.2025528 0.42927837 -0.88435364 1.6429186 -1.4906921 2.6803417c-0.6063385 1.0360994 -1.212677 2.097371 -1.3132935 2.3756075c-0.12577057 0.2530632 -0.32832336 0.5312996 -0.42893982 0.63199425c-0.12709045 0.07552147 -0.6314926 0.9354038 -1.1623688 1.8959808c-0.53087616 0.9354038 -1.465538 2.527975 -2.0970306 3.540224c-0.6314926 0.9857521 -1.1623764 1.869482 -1.1623764 1.9715023c0 0.07552147 -0.6566467 1.11162 -1.4642105 2.300087c-0.8088989 1.1632919 -2.3750534 3.4382038 -3.46064 5.030777c-3.638031 5.3593597 -9.978111 13.4242325 -14.448875 18.429836c-6.795494 7.6090965 -13.842537 14.66172 -19.324738 19.390411c-3.6883469 3.1851425 -4.0669785 3.488556 -6.390396 5.3076935c-1.1623688 0.9354019 -2.197647 1.7701111 -2.2744293 1.8708038c-0.25154114 0.3034134 -6.6684036 5.1579666 -8.3603325 6.3464355c-4.4204483 3.0831223 -7.2244377 4.979103 -9.800716 6.6736984c-1.5661545 1.0360947 -3.209095 2.1490402 -3.688343 2.477623c-0.48056793 0.32858276 -0.9849701 0.60681915 -1.1623688 0.60681915c-0.1760788 0 -0.35347748 0.10069275 -0.4037857 0.2517395c-0.050308228 0.12718964 -1.0352783 0.7843628 -2.1473389 1.4667053c-1.1372185 0.6571655 -2.2731094 1.3911743 -2.5259743 1.5925674c-0.27801514 0.22789001 -1.1372147 0.7340164 -1.8944778 1.1884689c-0.783741 0.4292755 -3.2845573 1.9211502 -5.5325127 3.2858353c-2.2731094 1.366005 -4.4707584 2.6551666 -4.8996964 2.8830566c-0.85920143 0.40410614 -1.9461117 1.0612717 -2.222803 1.339508c-0.15224648 0.15104675 -0.68312454 0.4544525 -4.875866 2.679016c-1.3887558 0.7340164 -3.3851738 1.7952881 -4.42045 2.3769302c-1.0352783 0.5564728 -5.7085905 2.9320831 -10.35675 5.258667c-4.648158 2.3504333 -8.437116 4.323265 -8.437116 4.398781c0 0.07552338 85.15225 0.12586975 189.22545 0.12586975c120.39142 0 189.02423 -0.12586975 188.74622 -0.30340576c-0.27801514 -0.17621613 -1.0855713 -0.40410614 -1.8441772 -0.5047989c-0.7320862 -0.12719727 -1.4139099 -0.3285904 -1.5158386 -0.48095703c-0.07546997 -0.15103912 -0.42892456 -0.2782364 -0.7572632 -0.2782364c-0.3283081 0 -1.212677 -0.2013855 -1.9699402 -0.4544525c-0.73342896 -0.22789001 -2.4002075 -0.7591858 -3.713501 -1.1381149c-1.3132935 -0.40410614 -2.9310608 -0.91023254 -3.638031 -1.111618c-0.6817932 -0.22789001 -2.753662 -0.85988617 -4.5713806 -1.416359c-1.8190002 -0.5564728 -5.1538696 -1.6177444 -7.4269714 -2.3504333c-2.2479553 -0.7340164 -5.1539 -1.6945877 -6.4671936 -2.0986938c-1.3132935 -0.40410614 -2.500824 -0.83470917 -2.67688 -0.9857559c-0.1522522 -0.12718964 -0.5057373 -0.2530594 -0.78375244 -0.2530594c-0.27801514 -0.025177002 -1.0604248 -0.3034134 -1.742218 -0.63199615c-0.7082825 -0.32858276 -1.5158691 -0.60681915 -1.7938843 -0.60681915c-0.30316162 -0.025169373 -0.6314697 -0.15103912 -0.7320862 -0.30340576c-0.10195923 -0.17754364 -0.63150024 -0.40410614 -1.1875305 -0.5313034c-0.5560303 -0.12586975 -1.2378235 -0.32858276 -1.4906921 -0.4544525c-0.27801514 -0.15236664 -1.4139099 -0.58164215 -2.5259705 -0.9605789c-1.137207 -0.37892914 -2.500824 -0.88505554 -3.0568542 -1.1381149c-0.554718 -0.22789001 -1.1358948 -0.4292755 -1.3132935 -0.4292755c-0.17608643 0 -0.7069397 -0.20272064 -1.212677 -0.48095703c-0.50439453 -0.25173187 -1.1358948 -0.4544525 -1.4390564 -0.4544525c-0.30319214 0 -0.60635376 -0.15236664 -0.7082825 -0.30340576c-0.100616455 -0.15236664 -0.63150024 -0.37892914 -1.2113647 -0.5061264c-0.9611206 -0.2265625 -1.3649292 -0.37892914 -4.0669556 -1.5422211c-0.63150024 -0.2782364 -1.3146362 -0.5047989 -1.4906921 -0.5047989c-0.17739868 0 -0.8088989 -0.20272064 -1.3649292 -0.43061066c-0.5798645 -0.25173187 -1.6416321 -0.6823349 -2.3737183 -0.9605713c-4.3701477 -1.6429214 -6.088562 -2.300087 -7.83078 -3.0327759c-0.68182373 -0.3034134 -1.9699402 -0.8095398 -2.8291626 -1.1129456c-0.8843384 -0.3034134 -1.7183838 -0.6823425 -1.8944702 -0.83470917c-0.1522522 -0.15104675 -0.4805603 -0.2517395 -0.7321167 -0.2517395c-0.25283813 0 -0.8843384 -0.20271301 -1.4403687 -0.4557724c-2.4002075 -1.0864487 -3.9663696 -1.7687912 -4.117279 -1.7687912c-0.07546997 0 -1.0617676 -0.43060303 -2.1976624 -0.9354019c-1.1120605 -0.5313034 -2.1976318 -0.9605789 -2.4002075 -0.9605789c-0.17605591 0 -0.58117676 -0.12719727 -0.8843384 -0.3034134c-0.9095154 -0.5061188 -5.4305725 -2.5279694 -5.6582947 -2.5279694c-0.12576294 0 -1.1358948 -0.45578003 -2.2982483 -0.9870758c-1.1372375 -0.5551529 -3.5612488 -1.7184448 -5.3802795 -2.5783234c-4.8758545 -2.300087 -13.085266 -6.370285 -13.261353 -6.572998c-0.07678223 -0.07552338 -0.93466187 -0.5299759 -1.895813 -1.0109253c-2.2731018 -1.1381226 -9.042114 -4.930084 -11.695175 -6.5478287c-0.25286865 -0.15103912 -1.4642181 -0.88505554 -2.6768951 -1.6177444c-1.212677 -0.7326889 -2.2479553 -1.4667053 -2.299591 -1.6177444c-0.07546997 -0.12719727 -0.25154114 -0.2530594 -0.42893982 -0.2530594c-0.1522522 0 -0.6818085 -0.25306702 -1.1372223 -0.5816498c-0.47924805 -0.32858276 -2.7020416 -1.8204613 -4.976471 -3.3110123c-2.2479553 -1.4918747 -4.7990875 -3.2116394 -5.683441 -3.8171349c-0.85787964 -0.60681915 -1.8441772 -1.3156586 -2.1725006 -1.5170479c-0.32832336 -0.22789001 -0.73210144 -0.5564728 -0.93466187 -0.7340164c-0.20123291 -0.17621613 -1.9950867 -1.5925713 -3.9901886 -3.1347923c-1.9964142 -1.5673981 -3.7134857 -2.9069061 -3.7889557 -3.0076027c-0.07678223 -0.10069656 -1.718399 -1.5422249 -3.638031 -3.2103157c-4.7487793 -4.1722183 -12.226074 -11.932358 -15.308075 -15.927036c-0.9598236 -1.2136402 -1.7925415 -2.2749119 -1.919632 -2.351759c-0.100616455 -0.10069466 -0.9095154 -1.1619663 -1.793869 -2.3756065c-0.90818787 -1.2136402 -1.7673798 -2.351759 -1.8944702 -2.527975c-2.0202484 -2.4776268 -9.118927 -13.955534 -11.948059 -19.365242c-1.0101318 -1.9211549 -1.767395 -3.007601 -2.1725006 -3.0844471c-0.23565674 -0.06757164 -5.545746 -0.100695014 -13.213684 -0.100695014z" fill-rule="evenodd"/></g></svg>